<svg width="126" height="126" viewBox="0 0 126 126" fill="none" xmlns="http://www.w3.org/2000/svg">
<circle cx="6" cy="6" r="6" transform="matrix(1 0 0 -1 57 69)" fill="white"/>
<path d="M74.05 82.1392C75.127 84.0045 77.5355 84.6647 79.219 83.3211C82.6381 80.5922 85.3307 77.0301 87.0209 72.9498C89.2112 67.662 89.5954 61.7992 88.1141 56.2707C86.6327 50.7422 83.3685 45.8571 78.8278 42.3728C74.2871 38.8886 68.7235 37 63 37C57.2765 37 51.713 38.8886 47.1722 42.3728C42.6315 45.857 39.3673 50.7422 37.8859 56.2707C36.4046 61.7992 36.7888 67.6619 38.9791 72.9498C40.6693 77.0301 43.3619 80.5922 46.781 83.3211C48.4645 84.6647 50.873 84.0045 51.95 82.1392C53.027 80.2738 52.35 77.915 50.7563 76.466C48.7841 74.6727 47.2176 72.4569 46.1854 69.9648C44.6522 66.2634 44.3832 62.1594 45.4202 58.2895C46.4571 54.4196 48.742 50.9999 51.9205 48.561C55.0991 46.122 58.9936 44.8 63 44.8C67.0064 44.8 70.9009 46.122 74.0795 48.561C77.258 50.9999 79.5429 54.4196 80.5798 58.2895C81.6168 62.1594 81.3478 66.2634 79.8146 69.9648C78.7824 72.4569 77.2159 74.6727 75.2437 76.466C73.65 77.915 72.973 80.2738 74.05 82.1392Z" fill="white"/>
<path d="M83.25 98.074C84.4926 100.226 87.2608 100.981 89.2784 99.5302C96.0498 94.6592 101.36 87.9817 104.575 80.2208C108.365 71.0688 109.031 60.9216 106.467 51.3531C103.903 41.7846 98.2533 33.3295 90.3943 27.2991C82.5353 21.2687 72.906 18 63 18C53.094 18 43.4647 21.2687 35.6057 27.2991C27.7467 33.3295 22.0972 41.7846 19.5333 51.3531C16.9695 60.9216 17.6345 71.0688 21.4254 80.2207C24.6401 87.9817 29.9502 94.6592 36.7216 99.5302C38.7391 100.981 41.5074 100.226 42.75 98.074C43.9926 95.9217 43.2339 93.1908 41.2533 91.6895C36.1813 87.8449 32.1964 82.706 29.7403 76.7766C26.7076 69.455 26.1756 61.3373 28.2267 53.6825C30.2778 46.0277 34.7974 39.2636 41.0846 34.4393C47.3718 29.6149 55.0752 27 63 27C70.9248 27 78.6282 29.615 84.9154 34.4393C91.2026 39.2636 95.7222 46.0277 97.7733 53.6825C99.8244 61.3373 99.2924 69.455 96.2597 76.7766C93.8036 82.706 89.8187 87.8449 84.7466 91.6895C82.766 93.1908 82.0074 95.9217 83.25 98.074Z" fill="white"/>
<path d="M33.41 114.251C32.3552 116.078 30.0114 116.714 28.2515 115.55C17.7962 108.637 9.61435 98.7426 4.79559 87.1091C-0.511637 74.2963 -1.44275 60.0903 2.14667 46.6944C5.73609 33.2985 13.6454 21.4613 24.648 13.0187C35.6506 4.57616 49.1315 0 63 0C76.8684 0 90.3494 4.57616 101.352 13.0187C112.355 21.4613 120.264 33.2985 123.853 46.6944C127.443 60.0903 126.512 74.2963 121.204 87.109C116.386 98.7425 108.204 108.637 97.7485 115.55C95.9886 116.714 93.6449 116.078 92.59 114.251C91.5351 112.424 92.1699 110.099 93.9199 108.92C102.923 102.858 109.971 94.2646 114.146 84.1853C118.809 72.9263 119.628 60.4432 116.473 48.6718C113.319 36.9005 106.369 26.4988 96.7009 19.0801C87.0326 11.6614 75.1866 7.64016 63 7.64017C50.8134 7.64017 38.9673 11.6614 29.2991 19.0801C19.6308 26.4988 12.6806 36.9005 9.5265 48.6718C6.37238 60.4432 7.19057 72.9264 11.8542 84.1853C16.0292 94.2646 23.0771 102.858 32.0801 108.92C33.8301 110.099 34.4649 112.424 33.41 114.251Z" fill="white"/>
</svg>
