<svg width="126" height="126" viewBox="0 0 126 126" fill="none" xmlns="http://www.w3.org/2000/svg">
<g clip-path="url(#clip0_216_4997)">
<path d="M26.2503 86.6249C27.3776 88.132 28.8158 89.379 30.4675 90.2814C32.1191 91.1837 33.9455 91.7203 35.8227 91.8548C37.7 91.9892 39.5842 91.7184 41.3476 91.0606C43.1109 90.4028 44.7122 89.3735 46.0428 88.0424L53.9178 80.1674C56.3086 77.692 57.6315 74.3766 57.6016 70.9353C57.5717 67.4939 56.1914 64.202 53.7579 61.7685C51.3244 59.3351 48.0325 57.9547 44.5912 57.9248C41.1498 57.8949 37.8344 59.2178 35.359 61.6087L30.844 66.0974M36.7503 81.3749C35.623 79.8678 34.1847 78.6208 32.5331 77.7184C30.8815 76.8161 29.0551 76.2795 27.1778 76.145C25.3006 76.0106 23.4164 76.2814 21.653 76.9392C19.8896 77.597 18.2884 78.6264 16.9578 79.9574L9.08278 87.8324C6.69196 90.3078 5.36903 93.6232 5.39893 97.0646C5.42884 100.506 6.80918 103.798 9.24266 106.231C11.6761 108.665 14.9681 110.045 18.4094 110.075C21.8507 110.105 25.1661 108.782 27.6415 106.391L32.1303 101.902" stroke="white" stroke-width="8.925" stroke-linecap="round" stroke-linejoin="round"/>
<path d="M10.6041 65.625C10.4652 63.6846 10.48 61.7287 10.652 59.7756C11.25 52.9866 13.724 46.4977 17.7975 41.0339C21.8711 35.5701 27.3838 31.3467 33.7195 28.8356C40.0552 26.3244 46.9644 25.6246 53.675 26.8142C60.3856 28.0038 66.6332 31.036 71.7197 35.5719C76.8062 40.1079 80.5311 45.9689 82.4783 52.5H91.8758C98.1416 52.5 104.151 54.9891 108.581 59.4196C113.012 63.8502 115.501 69.8593 115.501 76.125C115.501 82.3907 113.012 88.3999 108.581 92.8304C104.151 97.261 98.1416 99.75 91.8758 99.75L55.125 99.75" stroke="white" stroke-width="8.925" stroke-linecap="round" stroke-linejoin="round"/>
</g>
<defs>
<clipPath id="clip0_216_4997">
<rect width="126" height="126" fill="white"/>
</clipPath>
</defs>
</svg>
